<?xml version="1.0" encoding="utf-8"?>
<!-- Generator: Adobe Illustrator 24.1.0, SVG Export Plug-In . SVG Version: 6.00 Build 0)  -->
<svg version="1.1" id="home" xmlns="http://www.w3.org/2000/svg" xmlns:xlink="http://www.w3.org/1999/xlink" x="0px" y="0px"
	 viewBox="0 0 212 206.2" style="enable-background:new 0 0 212 206.2;" xml:space="preserve">
<style type="text/css">
	.st0{fill:#227075;stroke:#267476;stroke-miterlimit:10;}
</style>
<path class="st0" d="M205.6,84.7l-89-77.1c-0.3-0.3-0.7-0.5-1.1-0.6c-5.7-4.3-13.6-4.1-19,0.6l-89,77.1c-6.4,5.5-7.2,15.3-1.8,21.8
	c3.4,4.1,9.1,4.1,13.4,3.2v82.8c0,6.3,5,11.3,11.2,11.3H84c2.4,0,4.4-2,4.4-4.4v-72.2h36.5v72.2c0,2.4,2,4.4,4.4,4.4h53.6
	c6.2,0,11.2-5.1,11.2-11.3v-82.8c4.4,0.9,10,0.9,13.4-3.2C212.8,100,212,90.2,205.6,84.7z M200.7,101c-0.9,1.1-5.6,0.5-9.3-1.1
	c-1.4-0.6-2.9-0.5-4.1,0.4c-1.2,0.8-2,2.2-2,3.7v88.7c0,1.4-1.1,2.6-2.4,2.6h-49.2v-72.2c0-2.4-2-4.4-4.4-4.4H84
	c-2.4,0-4.4,2-4.4,4.4v72.2H30.4c-1.3,0-2.4-1.2-2.4-2.6v-88.7c0-1.5-0.7-2.9-2-3.7c-1.2-0.8-2.8-0.9-4.2-0.3
	c-3.3,1.5-8.3,2.3-9.3,1.1c-2.4-2.9-2-7.2,0.8-9.6l89-77.1c2.4-2.1,6-2.1,8.4,0c0.3,0.3,0.7,0.5,1,0.7l88.2,76.4
	C202.7,93.8,203.1,98.1,200.7,101L200.7,101z"/>
</svg>
