<?xml version="1.0" encoding="utf-8"?>
<!-- Generator: Adobe Illustrator 24.1.0, SVG Export Plug-In . SVG Version: 6.00 Build 0)  -->
<svg version="1.1" xmlns="http://www.w3.org/2000/svg" xmlns:xlink="http://www.w3.org/1999/xlink" x="0px" y="0px"
	 viewBox="0 0 595.3 841.9" style="enable-background:new 0 0 595.3 841.9;" xml:space="preserve">
<style type="text/css">
	.st0{fill:none;stroke:#008080;stroke-width:5;stroke-miterlimit:10;}
</style>
<g id="Livello_1">
	
		<image style="overflow:visible;" width="1200" height="1397" xlink:href="../../Downloads/IMG_3389.PNG"  transform="matrix(0.4113 0 0 0.406 39.9299 107.7478)">
	</image>
</g>
<g id="Livello_2">
	<line class="st0" x1="286.7" y1="674.9" x2="84.2" y2="619.5"/>
	<line class="st0" x1="488.1" y1="619.4" x2="286.7" y2="674.9"/>
	<line class="st0" x1="533.5" y1="123" x2="488.1" y2="619.4"/>
	<line class="st0" x1="39.9" y1="123.9" x2="84.2" y2="619.5"/>
	<line class="st0" x1="533.5" y1="123" x2="39.9" y2="123.9"/>
	<line class="st0" x1="441" y1="224.6" x2="131.5" y2="224.6"/>
	<line class="st0" x1="137.9" y1="284.8" x2="131.5" y2="224.6"/>
	<line class="st0" x1="373.2" y1="285.2" x2="137.9" y2="284.8"/>
	<line class="st0" x1="367.5" y1="347.4" x2="373.2" y2="285.2"/>
	<line class="st0" x1="142.9" y1="347.7" x2="367.5" y2="347.4"/>
	<line class="st0" x1="148.7" y1="408.8" x2="142.9" y2="347.7"/>
	<line class="st0" x1="362" y1="408.5" x2="148.7" y2="408.8"/>
	<line class="st0" x1="355.2" y1="487.3" x2="362" y2="408.5"/>
	<line class="st0" x1="212.9" y1="439.1" x2="151" y2="439.1"/>
	<line class="st0" x1="217.6" y1="487.3" x2="212.9" y2="439.1"/>
	<line class="st0" x1="286.7" y1="505.7" x2="355.2" y2="487.3"/>
	<line class="st0" x1="217.6" y1="487.3" x2="286.7" y2="505.7"/>
	<line class="st0" x1="159.5" y1="534.6" x2="151" y2="439.1"/>
	<line class="st0" x1="286.7" y1="569.6" x2="159.5" y2="534.6"/>
	<line class="st0" x1="412.7" y1="535.2" x2="286.7" y2="569.6"/>
	<line class="st0" x1="412.5" y1="535.5" x2="441" y2="224.6"/>
</g>
</svg>
