<?xml version="1.0" encoding="utf-8"?>
<!-- Generator: Adobe Illustrator 24.1.0, SVG Export Plug-In . SVG Version: 6.00 Build 0)  -->
<svg version="1.1" xmlns="http://www.w3.org/2000/svg" xmlns:xlink="http://www.w3.org/1999/xlink" x="0px" y="0px"
	 viewBox="0 0 595.3 841.9" style="enable-background:new 0 0 595.3 841.9;" xml:space="preserve">
<style type="text/css">
	.st0{display:none;}
	.st1{fill:none;stroke:#008080;stroke-width:5;stroke-miterlimit:10;}
</style>
<g id="Livello_1" class="st0">
	
		<image style="display:inline;overflow:visible;" width="933" height="982" xlink:href="../../Downloads/IMG_3390.PNG"  transform="matrix(0.5055 0 0 0.5147 61.815 136.114)">
	</image>
</g>
<g id="Livello_2">
	<line class="st1" x1="119.7" y1="591.1" x2="82.2" y2="144.9"/>
	<line class="st1" x1="510.9" y1="144.9" x2="82.2" y2="144.9"/>
	<line class="st1" x1="471.7" y1="590.2" x2="510.9" y2="144.9"/>
	<line class="st1" x1="297.6" y1="641.5" x2="471.7" y2="590.2"/>
	<line class="st1" x1="297.6" y1="641.5" x2="119.7" y2="591.1"/>
	<line class="st1" x1="430.8" y1="236.3" x2="161.7" y2="236.8"/>
	<line class="st1" x1="425.7" y1="290.3" x2="430.8" y2="236.3"/>
	<line class="st1" x1="220.9" y1="291.4" x2="425.7" y2="290.3"/>
	<line class="st1" x1="226" y1="346.6" x2="220.9" y2="291.4"/>
	<line class="st1" x1="420.7" y1="347.2" x2="226" y2="346.6"/>
	<line class="st1" x1="406.1" y1="516.3" x2="420.7" y2="347.2"/>
	<line class="st1" x1="176.2" y1="401.4" x2="161.7" y2="236.8"/>
	<line class="st1" x1="362.4" y1="402.2" x2="176.2" y2="401.4"/>
	<line class="st1" x1="355.8" y1="473.5" x2="362.4" y2="402.2"/>
	<line class="st1" x1="296" y1="489.4" x2="355.8" y2="473.5"/>
	<line class="st1" x1="236.2" y1="473" x2="296" y2="489.4"/>
	<line class="st1" x1="232.1" y1="429.4" x2="236.2" y2="473"/>
	<line class="st1" x1="178" y1="429.4" x2="232.1" y2="429.4"/>
	<line class="st1" x1="185.7" y1="515.4" x2="178" y2="429.4"/>
	<line class="st1" x1="296" y1="547.1" x2="185.7" y2="515.4"/>
	<line class="st1" x1="406.1" y1="515.7" x2="296" y2="547.1"/>
</g>
</svg>
