<?xml version="1.0" encoding="utf-8"?>
<!-- Generator: Adobe Illustrator 24.1.0, SVG Export Plug-In . SVG Version: 6.00 Build 0)  -->
<svg version="1.1" xmlns="http://www.w3.org/2000/svg" xmlns:xlink="http://www.w3.org/1999/xlink" x="0px" y="0px"
	 viewBox="0 0 595.3 841.9" style="enable-background:new 0 0 595.3 841.9;" xml:space="preserve">
<style type="text/css">
	.st0{display:none;}
	.st1{fill:none;stroke:#008080;stroke-width:5;stroke-miterlimit:10;}
</style>
<g id="Livello_1" class="st0">
	
		<image style="display:inline;overflow:visible;" width="679" height="682" xlink:href="../../Downloads/IMG_3391.PNG"  transform="matrix(0.7644 0 0 0.7576 38.1244 140.8785)">
	</image>
</g>
<g id="Livello_2">
	<line class="st1" x1="551.6" y1="144.3" x2="41.8" y2="144"/>
	<line class="st1" x1="550.3" y1="651.7" x2="551.6" y2="144.3"/>
	<line class="st1" x1="41.8" y1="652.6" x2="550.3" y2="651.7"/>
	<line class="st1" x1="41.8" y1="652.6" x2="41.8" y2="144"/>
	<line class="st1" x1="319.3" y1="377.9" x2="271.2" y2="377.3"/>
	<path class="st1" d="M215.1,545.1c0.5,1.3,9,21.6,27.9,24.1c2.4,0.3,12,1.3,19.7-4.4c11.2-8.3,9.6-24.3,8.7-67.4
		c-0.5-26.2-0.3-52.5-0.5-78.7c-0.1-17.9-0.1-32.5,0-42.1"/>
	<line class="st1" x1="175.8" y1="568.6" x2="215.4" y2="544.9"/>
	<path class="st1" d="M319.3,377.9c-0.2,19.7-0.4,50.7,0,89.1c1,82.4,3.7,99.2-10.5,116.7c-21.6,26.6-69.6,38.8-103.3,19.2
		c-16.9-9.8-25.7-25.1-29.9-34.2"/>
	<line class="st1" x1="384.6" y1="540.6" x2="345.2" y2="563.7"/>
	<path class="st1" d="M498.4,412.5c-3.1-5.7-8.9-14.8-19.1-22.7c-17.8-13.7-37.1-14.5-46.1-14.7c-9.9-0.3-27.8-0.7-45.4,11.1
		c-4.2,2.9-23.1,16.3-27.8,41c-4.4,22.9,5.1,46,19.1,59.7c17,16.6,50.1,28.5,61.7,32.6c5.7,2.1,15.8,5.4,20.7,14.7
		c3.4,6.5,4.1,15.5,0.4,22.3c-8,14.5-34.9,15.8-52.9,7.6c-14.2-6.5-21.4-18.2-24.3-23.5"/>
	<path class="st1" d="M460.6,437.6c-0.8-1.9-7.2-16.1-22.3-19.9c-2.2-0.6-15.7-3.9-24.7,4.8c-6.4,6.3-8.2,16.6-5.6,24.3
		c4.6,13.6,20.7,13.4,46.9,26.7c18.9,9.5,42.9,21.6,52.9,45.8c9.9,23.9,0.8,46.9,0,48.9c-6.7,16.2-18.6,25-23.1,28.2
		c-37.6,27.2-103.1,17.8-130.9-17.9c-4.6-5.9-7.3-11.4-8.8-14.7"/>
	<line class="st1" x1="498.4" y1="412.5" x2="460.6" y2="437.6"/>
</g>
</svg>
