<?xml version="1.0" encoding="utf-8"?>
<!-- Generator: Adobe Illustrator 24.1.0, SVG Export Plug-In . SVG Version: 6.00 Build 0)  -->
<svg version="1.1" id="Livello_1" xmlns="http://www.w3.org/2000/svg" xmlns:xlink="http://www.w3.org/1999/xlink" x="0px" y="0px"
	 viewBox="0 0 595.3 841.9" style="enable-background:new 0 0 595.3 841.9;" xml:space="preserve">
<style type="text/css">
	.st0{display:none;}
	.st1{fill:none;stroke:#008080;stroke-width:4;stroke-miterlimit:10;}
</style>
<g id="Livello_1_1_" class="st0">
	
		<image style="display:inline;overflow:visible;enable-background:new    ;" width="508" height="511" xlink:href="../../Downloads/IMG_3393.PNG"  transform="matrix(1 0 0 1 44 165.8898)">
	</image>
</g>
<g id="Livello_2_1_">
	<line class="st1" x1="66.4" y1="286.3" x2="65.7" y2="555"/>
	<line class="st1" x1="436.1" y1="192.6" x2="157.2" y2="191.8"/>
	<line class="st1" x1="424.4" y1="653.1" x2="166.3" y2="653.6"/>
	<line class="st1" x1="525.9" y1="554.7" x2="527.4" y2="300.6"/>
	<path class="st1" d="M527.4,300.6c0.2-10.4-0.6-44.6-25-73.6c-5.6-6.7-21.8-25.9-49.3-32.4c-6.8-1.6-12.8-2-17-2.1"/>
	<path class="st1" d="M525.9,554.7c0.1,6.2-0.1,41.9-28.8,70.3c-29.5,29.3-66.6,28.3-72.7,28"/>
	<path class="st1" d="M65.7,555c0,7.6,0.9,39.8,26,67c29.3,31.7,68.4,31.7,74.6,31.6"/>
	<path class="st1" d="M157.2,191.8c-10.2-0.4-27.6,0.5-45.1,10.3c-43.8,24.5-45.6,80.6-45.6,84.1"/>
	<path class="st1" d="M358,423.3c-27.6-17.5-57.5-38.3-88.4-63.1c-30.6-24.5-57.3-48.8-80.2-71.7"/>
	<path class="st1" d="M285.9,409.3c-17.2-17.7-35.4-38-53.6-61c-16.4-20.7-30.7-40.8-43-59.8"/>
	<path class="st1" d="M326.9,259c10.4,12.5,33.1,43.4,38.7,88.9c4.1,33.4-2.7,60.4-7.7,75.3"/>
	<path class="st1" d="M146,304.1c19.1,17.9,41.1,36.8,66.2,55.7c25.8,19.5,50.7,35.8,73.7,49.5"/>
	<path class="st1" d="M309.3,481c-30-23.9-63.7-54.2-97.4-92c-26.4-29.6-48.1-58.5-65.9-84.9"/>
	<path class="st1" d="M112.1,459.3c17.4,12.3,87.8,58.9,163.3,36.7c10.3-3,21.9-7.7,33.9-14.9"/>
	<path class="st1" d="M456.8,569.6c-5.4-9.4-14.6-21.8-29.6-27.7c-29.8-11.8-53.2,13.6-96,23.4c-60.1,13.7-113.8-13.7-130.4-22.2
		c-49.2-25.1-76.5-63.3-88.8-83.7"/>
	<path class="st1" d="M431.8,477.6c13.2,16.7,37.2,52.2,26.9,86.4c-0.6,1.8-1.2,3.7-2,5.5"/>
	<path class="st1" d="M431.8,477.6c3.9-19.3,9.4-60.7-7.5-107.8C399,299.5,341.9,266.9,326.9,259"/>
</g>
</svg>
