<?xml version="1.0" encoding="utf-8"?>
<!-- Generator: Adobe Illustrator 24.1.0, SVG Export Plug-In . SVG Version: 6.00 Build 0)  -->
<svg version="1.1" xmlns="http://www.w3.org/2000/svg" xmlns:xlink="http://www.w3.org/1999/xlink" x="0px" y="0px"
	 viewBox="0 0 595.3 841.9" style="enable-background:new 0 0 595.3 841.9;" xml:space="preserve">
<style type="text/css">
	.st0{display:none;}
	.st1{fill:none;stroke:#008080;stroke-width:5;stroke-miterlimit:10;}
</style>
<g id="Livello_1" class="st0">
	
		<image style="display:inline;overflow:visible;" width="1024" height="1024" xlink:href="../../Downloads/IMG_3394.PNG"  transform="matrix(0.4786 0 0 0.4932 45.6708 110.5976)">
	</image>
</g>
<g id="Livello_2">
	<path class="st1" d="M45.7,363.1c-2.5-140.7,114-255.6,250.7-252.5c132.6,3,241.9,116.1,239.4,252.5"/>
	<path class="st1" d="M45.7,362.2c-2.1,142.9,116.9,258.2,253.6,253.4c130.2-4.5,238.2-116.5,236.5-252.5"/>
	<path class="st1" d="M56.8,362.2C55.1,500.7,171.4,611.1,301.9,605c122.3-5.7,224.2-112.2,222.8-241.9"/>
	<path class="st1" d="M56.8,362.2c-1.6-134.7,110.6-243.9,240.9-240.1c125.6,3.7,229.2,111.2,227,241"/>
	<line class="st1" x1="231.5" y1="570.5" x2="294.2" y2="382.4"/>
	<line class="st1" x1="359.9" y1="567.5" x2="294.5" y2="383.2"/>
	<path class="st1" d="M359.9,567.5c-15.2,5-37.3,10.4-64.5,10.8c-26.7,0.4-48.7-4.1-63.9-8.4"/>
	<path class="st1" d="M198.1,555.9c-17.6-9.1-68.3-38.3-97.3-100.4c-40.1-85.7-7.1-166.3-1.5-179.4"/>
	<line class="st1" x1="198.1" y1="555.9" x2="99.2" y2="276.1"/>
	<path class="st1" d="M397.4,548.3c19-11.7,59.4-40.3,83.9-93.2c42.9-92.8,0.6-181.9-5.7-194.7"/>
	<path class="st1" d="M397.4,548.3c10.6-33.7,20.1-62.7,28-86c5.8-17.1,10.4-31,17.2-50.2c20.1-57.1,24.1-63.6,28.4-83.4
		c3.4-15.7,6.6-38.8,4.7-68.4"/>
	<path class="st1" d="M115.6,243.9c5.9-9.5,55-85.2,152-96.1c93-10.5,156,46.9,164.8,55.2"/>
	<path class="st1" d="M162.4,261.9c4.9-0.2,9-0.5,12.2-0.8c13.9-1.4,16.3-3.2,17.4-5.1c1.6-2.5,1.4-5.8,1.4-6.2
		c0-0.7-0.2-3.5-1.6-5.4c-2.3-3-7.2-2.4-15.8-1.9c-6,0.3-11.9,0.3-17.9,0.5c-7,0.3-7.1,0.1-19.9,0.3c-5.4,0.1-13.2,0.3-22.7,0.6"/>
	<line class="st1" x1="238.6" y1="495.3" x2="162.4" y2="261.9"/>
	<line class="st1" x1="284.3" y1="353.3" x2="238.6" y2="495.3"/>
	<line class="st1" x1="251.7" y1="261.9" x2="284.3" y2="353.3"/>
	<path class="st1" d="M320.1,261.9c6.7-0.7,12-1.1,15.6-1.3c8.7-0.6,11.6-0.6,13.8-3c2.3-2.5,3.2-6.7,1.8-10.1c-1.2-3-3.9-4.4-5-5
		c-4.8-2.5-9.7-1.5-13.8-0.8c-2.9,0.5-9,1-21.4,2c-9.5,0.8-16.9,0.6-24.4,0.5c-3-0.1-7.8-0.3-17.6-0.8c-7.4-0.4-14.8-0.4-22.1-1
		c-13.5-1.1-18.1-2.5-21.7,0.9c-1.9,1.8-3.4,4.7-3.1,7.9c0.3,4.3,3.8,6.9,4.3,7.3c3,2.2,5.7,1.7,12.6,2c3,0.1,7.4,0.5,12.8,1.3"/>
	<line class="st1" x1="395.4" y1="492.9" x2="320.1" y2="261.9"/>
	<path class="st1" d="M432.3,203c-3.3-0.4-10.4-0.8-17.8,2.9c-9.4,4.6-13.4,12.7-15.3,16.7c-1.3,2.7-6.8,14.8-2.1,35.5
		c5,21.9,14.7,24.3,24.7,47.8c0.9,2,8.6,20.9,9.8,44.2c1,21.3-4,35.6-11.8,60.2c-5.9,18.7-14.5,46.7-24.4,82.6"/>
</g>
</svg>
